{"title":"Shark Night 2011 R5 LiNE XviD - VISUALiSE","uid":6809433,"size":1062083854,"categoryP":"video","categoryS":"movies","magnet":"?xt=urn:btih:edfea8cc7dadf91980c695b32f70a82e734949de&amp;dn=Shark+Night+2011+R5+LiNE+XviD+-+VISUALiSE&amp;tr=udp%3A%2F%2Ftracker.openbittorrent.com%3A80&amp;tr=udp%3A%2F%2Fopen.demonii.com%3A1337&amp;tr=udp%3A%2F%2Ftracker.coppersurfer.tk%3A6969&amp;tr=udp%3A%2F%2Fexodus.desync.com%3A6969","seeders":0,"leechers":0,"uploader":"TvTeam","files":4,"time":1320994666,"description":". \n &lt;a href=&quot;\nhttp://www.torrenting.com&quot; rel=&quot;nofollow&quot; target=&quot;_NEW&quot;&gt;\nhttp://www.torrenting.com&lt;/a&gt;          :     Once &amp; For all ;)\n\n\n               www . Torrenting . Com \n\n(((((((((((((= Enjoy No RAR releases =))))))))))))))))))))\n\n\n...................................NFO:....................................\n\n.[pre]\noooooo     oooo  o8o   .oooooo..o ooooo     ooo       .o.       ooooo         o8o   .oooooo..o oooooooooooo\n`888.     .8'   `&quot;'  d8P'    `Y8 `888'     `8'      .888.      `888'         `&quot;'  d8P'    `Y8 `888'     `8\n `888.   .8'   oooo  Y88bo.       888       8      .8&quot;888.      888         oooo  Y88bo.       888        \n  `888. .8'    `888   `&quot;Y8888o.   888       8     .8' `888.     888         `888   `&quot;Y8888o.   888oooo8    \n   `888.8'      888       `&quot;Y88b  888       8    .88ooo8888.    888          888       `&quot;Y88b  888    &quot;    \n    `888'       888  oo     .d8P  `88.    .8'   .8'     `888.   888       o  888  oo     .d8P  888       o\n     `8'       o888o 8&quot;&quot;88888P'     `YbodP'    o88o     o8888o o888ooooood8 o888o 8&quot;&quot;88888P'  o888ooooood8\n\n\n\n\nTitle: Shark Night 2011 R5 LiNE XviD - VISUALiSE\nFormat: Xvid\nLanguage: English\nSubtitles: No\nImdb: http://www.imdb.com/title/tt1633356/\n\nPlot:\nA weekend at a lake house in the Louisiana Gulf \nturns into a nightmare for seven vacationers as \nthey are subjected to shark attacks. \n\nSources:\nVideo: RELIZLAB - Many Thanks :D\nAudio: MiSTERE - Many Thanks As Always :D\n\nRelease Notes:\nDone our normal thing on this ran some filters and\na little sharpen then muxed the audio back \nto our encode :D :D\n\nenjoy. :P\n\nInfo:\n\nVideo\nID                               : 0\nFormat                           : MPEG-4 Visual\nFormat profile                   : Advanced Simple@L5\nFormat settings, BVOP            : 2\nFormat settings, QPel            : No\nFormat settings, GMC             : No warppoints\nFormat settings, Matrix          : Default (H.263)\nCodec ID                         : XVID\nCodec ID/Hint                    : XviD\nDuration                         : 1h 26mn\nBit rate                         : 1 498 Kbps\nWidth                            : 720 pixels\nHeight                           : 400 pixels\nDisplay aspect ratio             : 16:9\nFrame rate                       : 25.000 fps\nColor space                      : YUV\nChroma subsampling               : 4:2:0\nBit depth                        : 8 bits\nScan type                        : Progressive\nCompression mode                 : Lossy\nBits/(Pixel*Frame)               : 0.208\nStream size                      : 928 MiB (92%)\n\nAudio\nID                               : 1\nFormat                           : MPEG Audio\nFormat version                   : Version 1\nFormat profile                   : Layer 3\nMode                             : Joint stereo\nMode extension                   : MS Stereo\nCodec ID                         : 55\nCodec ID/Hint                    : MP3\nDuration                         : 1h 26mn\nBit rate mode                    : Constant\nBit rate                         : 128 Kbps\nChannel(s)                       : 2 channels\nSampling rate                    : 44.1 KHz\nCompression mode                 : Lossy\nStream size                      : 79.3 MiB (8%)\nAlignment                        : Aligned on interleaves\nInterleave, duration             : 40 ms (1.00 video frame)\nWriting library                  : LAME3.98r\nEncoding settings                : -m j -V 4 -q 2 -lowpass 17 -b 128\n\n\nScreens:\n[IMG]http://i.imgur.com/K77gR.png[/IMG]\n[IMG]http://i.imgur.com/0h17A.png[/IMG]\n[IMG]http://i.imgur.com/Fqjwh.png[/IMG]\n[IMG]http://i.imgur.com/KmJZh.png[/IMG]\n\nGreetz\nThe Select Few .... YOU Know Who YOU Are ;)\nThe Rest Of You ................... SUCK :P\n","torrent":{"xt":"urn:btih:edfea8cc7dadf91980c695b32f70a82e734949de","amp;dn":"Shark+Night+2011+R5+LiNE+XviD+-+VISUALiSE","amp;tr":["udp%3A%2F%2Ftracker.openbittorrent.com%3A80","udp%3A%2F%2Fopen.demonii.com%3A1337","udp%3A%2F%2Ftracker.coppersurfer.tk%3A6969","udp%3A%2F%2Fexodus.desync.com%3A6969"],"infoHash":"edfea8cc7dadf91980c695b32f70a82e734949de","infoHashBuffer":{"type":"Buffer","data":[237,254,168,204,125,173,249,25,128,198,149,179,47,112,168,46,115,73,73,222]},"announce":[],"urlList":[]}}